<?xml version="1.0" encoding="UTF-8" standalone="no"?>
<!DOCTYPE svg PUBLIC "-//W3C//DTD SVG 1.1//EN"
 "http://www.w3.org/Graphics/SVG/1.1/DTD/svg11.dtd">
<!-- Generated by graphviz version 2.40.1 (20161225.0304)
 -->
<!-- Title: dependencies Pages: 1 -->
<svg width="954pt" height="428pt"
 viewBox="0.00 0.00 954.00 428.00" xmlns="http://www.w3.org/2000/svg" xmlns:xlink="http://www.w3.org/1999/xlink">
<g id="graph0" class="graph" transform="scale(1 1) rotate(0) translate(4 424)">
<title>dependencies</title>
<polygon fill="#ffffff" stroke="transparent" points="-4,4 -4,-424 950,-424 950,4 -4,4"/>
<text text-anchor="start" x="452.0091" y="-42.4" font-family="sans-serif" font-weight="bold" font-size="14.00" fill="#000000">Legend</text>
<polygon fill="#ffffb3" stroke="transparent" points="239,-10 239,-30 259,-30 259,-10 239,-10"/>
<text text-anchor="start" x="262.629" y="-15.4" font-family="sans-serif" font-size="14.00" fill="#000000"> &#160;Declarations</text>
<polygon fill="#8dd3c7" stroke="transparent" points="352,-10 352,-30 372,-30 372,-10 352,-10"/>
<text text-anchor="start" x="375.7251" y="-15.4" font-family="sans-serif" font-size="14.00" fill="#000000"> &#160;Module</text>
<polygon fill="#80b1d3" stroke="transparent" points="438,-10 438,-30 458,-30 458,-10 438,-10"/>
<text text-anchor="start" x="461.7812" y="-15.4" font-family="sans-serif" font-size="14.00" fill="#000000"> &#160;Bootstrap</text>
<polygon fill="#fdb462" stroke="transparent" points="535,-10 535,-30 555,-30 555,-10 535,-10"/>
<text text-anchor="start" x="558.6732" y="-15.4" font-family="sans-serif" font-size="14.00" fill="#000000"> &#160;Providers</text>
<polygon fill="#fb8072" stroke="transparent" points="631,-10 631,-30 651,-30 651,-10 631,-10"/>
<text text-anchor="start" x="654.7258" y="-15.4" font-family="sans-serif" font-size="14.00" fill="#000000"> &#160;Exports</text>
<g id="clust1" class="cluster">
<title>cluster_AdminModule</title>
<polygon fill="none" stroke="#000000" stroke-dasharray="1,5" points="8,-138 8,-274 160,-274 160,-138 8,-138"/>
</g>
<g id="clust2" class="cluster">
<title>cluster_AdminModule_declarations</title>
<polygon fill="none" stroke="#000000" points="16,-146 16,-198 152,-198 152,-146 16,-146"/>
</g>
<g id="clust8" class="cluster">
<title>cluster_AppModule</title>
<polygon fill="none" stroke="#000000" stroke-dasharray="1,5" points="168,-214 168,-412 938,-412 938,-214 168,-214"/>
</g>
<g id="clust9" class="cluster">
<title>cluster_AppModule_declarations</title>
<polygon fill="none" stroke="#000000" points="808,-222 808,-274 930,-274 930,-222 808,-222"/>
</g>
<g id="clust11" class="cluster">
<title>cluster_AppModule_imports</title>
<polygon fill="none" stroke="#000000" points="316,-222 316,-274 800,-274 800,-222 316,-222"/>
</g>
<g id="clust13" class="cluster">
<title>cluster_AppModule_bootstrap</title>
<polygon fill="none" stroke="#000000" points="438,-352 438,-404 562,-404 562,-352 438,-352"/>
</g>
<g id="clust14" class="cluster">
<title>cluster_AppModule_providers</title>
<polygon fill="none" stroke="#000000" points="176,-222 176,-274 308,-274 308,-222 176,-222"/>
</g>
<g id="clust21" class="cluster">
<title>cluster_HomeModule</title>
<polygon fill="none" stroke="#000000" stroke-dasharray="1,5" points="297,-138 297,-206 445,-206 445,-138 297,-138"/>
</g>
<g id="clust22" class="cluster">
<title>cluster_HomeModule_declarations</title>
<polygon fill="none" stroke="#000000" points="305,-146 305,-198 437,-198 437,-146 305,-146"/>
</g>
<g id="clust28" class="cluster">
<title>cluster_LoginModule</title>
<polygon fill="none" stroke="#000000" stroke-dasharray="1,5" points="547,-70 547,-206 711,-206 711,-70 547,-70"/>
</g>
<g id="clust29" class="cluster">
<title>cluster_LoginModule_declarations</title>
<polygon fill="none" stroke="#000000" points="564,-146 564,-198 694,-198 694,-146 564,-146"/>
</g>
<g id="clust30" class="cluster">
<title>cluster_LoginModule_LoginComponent_providers</title>
<polygon fill="none" stroke="#000000" points="555,-78 555,-130 703,-130 703,-78 555,-78"/>
</g>
<!-- AdminComponent -->
<g id="node1" class="node">
<title>AdminComponent</title>
<polygon fill="#ffffb3" stroke="#000000" points="144.2204,-190 23.7796,-190 23.7796,-154 144.2204,-154 144.2204,-190"/>
<text text-anchor="middle" x="84" y="-167.8" font-family="Times,serif" font-size="14.00" fill="#000000">AdminComponent</text>
</g>
<!-- AdminModule -->
<g id="node2" class="node">
<title>AdminModule</title>
<polygon fill="#8dd3c7" stroke="#000000" points="142.4386,-266 139.4386,-270 118.4386,-270 115.4386,-266 43.5614,-266 43.5614,-230 142.4386,-230 142.4386,-266"/>
<text text-anchor="middle" x="93" y="-243.8" font-family="Times,serif" font-size="14.00" fill="#000000">AdminModule</text>
</g>
<!-- AdminComponent&#45;&gt;AdminModule -->
<g id="edge1" class="edge">
<title>AdminComponent&#45;&gt;AdminModule</title>
<path fill="none" stroke="#000000" d="M93,-190.0109C93,-190.0109 93,-219.855 93,-219.855"/>
<polygon fill="#000000" stroke="#000000" points="89.5001,-219.8549 93,-229.855 96.5001,-219.855 89.5001,-219.8549"/>
</g>
<!-- AppModule -->
<g id="node4" class="node">
<title>AppModule</title>
<polygon fill="#8dd3c7" stroke="#000000" points="541.6571,-331 538.6571,-335 517.6571,-335 514.6571,-331 458.3429,-331 458.3429,-295 541.6571,-295 541.6571,-331"/>
<text text-anchor="middle" x="500" y="-308.8" font-family="Times,serif" font-size="14.00" fill="#000000">AppModule</text>
</g>
<!-- AdminModule&#45;&gt;AppModule -->
<g id="edge5" class="edge">
<title>AdminModule&#45;&gt;AppModule</title>
<path fill="none" stroke="#000000" d="M93,-266.2921C93,-288.2057 93,-322 93,-322 93,-322 447.9768,-322 447.9768,-322"/>
<polygon fill="#000000" stroke="#000000" points="447.9768,-325.5001 457.9768,-322 447.9768,-318.5001 447.9768,-325.5001"/>
</g>
<!-- AppComponent -->
<g id="node3" class="node">
<title>AppComponent</title>
<polygon fill="#ffffb3" stroke="#000000" points="921.9399,-266 816.0601,-266 816.0601,-230 921.9399,-230 921.9399,-266"/>
<text text-anchor="middle" x="869" y="-243.8" font-family="Times,serif" font-size="14.00" fill="#000000">AppComponent</text>
</g>
<!-- AppComponent&#45;&gt;AppModule -->
<g id="edge2" class="edge">
<title>AppComponent&#45;&gt;AppModule</title>
<path fill="none" stroke="#000000" d="M869,-266.2921C869,-288.2057 869,-322 869,-322 869,-322 551.9697,-322 551.9697,-322"/>
<polygon fill="#000000" stroke="#000000" points="551.9698,-318.5001 541.9697,-322 551.9697,-325.5001 551.9698,-318.5001"/>
</g>
<!-- AppComponent  -->
<g id="node9" class="node">
<title>AppComponent </title>
<polygon fill="#80b1d3" stroke="#000000" points="554.439,-396 445.561,-396 445.561,-360 554.439,-360 554.439,-396"/>
<text text-anchor="middle" x="500" y="-373.8" font-family="Times,serif" font-size="14.00" fill="#000000">AppComponent </text>
</g>
<!-- AppModule&#45;&gt;AppComponent  -->
<g id="edge8" class="edge">
<title>AppModule&#45;&gt;AppComponent </title>
<path fill="none" stroke="#000000" stroke-dasharray="1,5" d="M500,-331.1061C500,-331.1061 500,-349.991 500,-349.991"/>
<polygon fill="#000000" stroke="#000000" points="496.5001,-349.9909 500,-359.991 503.5001,-349.991 496.5001,-349.9909"/>
</g>
<!-- SharedModule -->
<g id="node5" class="node">
<title>SharedModule</title>
<polygon fill="#8dd3c7" stroke="#000000" points="792.4231,-266 789.4231,-270 768.4231,-270 765.4231,-266 693.5769,-266 693.5769,-230 792.4231,-230 792.4231,-266"/>
<text text-anchor="middle" x="743" y="-243.8" font-family="Times,serif" font-size="14.00" fill="#000000">SharedModule</text>
</g>
<!-- SharedModule&#45;&gt;AppModule -->
<g id="edge3" class="edge">
<title>SharedModule&#45;&gt;AppModule</title>
<path fill="none" stroke="#000000" d="M743,-266.1061C743,-285.3391 743,-313 743,-313 743,-313 551.7732,-313 551.7732,-313"/>
<polygon fill="#000000" stroke="#000000" points="551.7732,-309.5001 541.7732,-313 551.7732,-316.5001 551.7732,-309.5001"/>
</g>
<!-- HomeModule -->
<g id="node6" class="node">
<title>HomeModule</title>
<polygon fill="#8dd3c7" stroke="#000000" points="417.7619,-266 414.7619,-270 393.7619,-270 390.7619,-266 324.2381,-266 324.2381,-230 417.7619,-230 417.7619,-266"/>
<text text-anchor="middle" x="371" y="-243.8" font-family="Times,serif" font-size="14.00" fill="#000000">HomeModule</text>
</g>
<!-- HomeModule&#45;&gt;AppModule -->
<g id="edge4" class="edge">
<title>HomeModule&#45;&gt;AppModule</title>
<path fill="none" stroke="#000000" d="M371,-266.027C371,-282.3976 371,-304 371,-304 371,-304 448.1174,-304 448.1174,-304"/>
<polygon fill="#000000" stroke="#000000" points="448.1174,-307.5001 458.1174,-304 448.1174,-300.5001 448.1174,-307.5001"/>
</g>
<!-- AppRoutingModule -->
<g id="node7" class="node">
<title>AppRoutingModule</title>
<polygon fill="#8dd3c7" stroke="#000000" points="564.2744,-266 561.2744,-270 540.2744,-270 537.2744,-266 435.7256,-266 435.7256,-230 564.2744,-230 564.2744,-266"/>
<text text-anchor="middle" x="500" y="-243.8" font-family="Times,serif" font-size="14.00" fill="#000000">AppRoutingModule</text>
</g>
<!-- AppRoutingModule&#45;&gt;AppModule -->
<g id="edge6" class="edge">
<title>AppRoutingModule&#45;&gt;AppModule</title>
<path fill="none" stroke="#000000" d="M500,-266.1061C500,-266.1061 500,-284.991 500,-284.991"/>
<polygon fill="#000000" stroke="#000000" points="496.5001,-284.9909 500,-294.991 503.5001,-284.991 496.5001,-284.9909"/>
</g>
<!-- LoginModule -->
<g id="node8" class="node">
<title>LoginModule</title>
<polygon fill="#8dd3c7" stroke="#000000" points="675.493,-266 672.493,-270 651.493,-270 648.493,-266 582.507,-266 582.507,-230 675.493,-230 675.493,-266"/>
<text text-anchor="middle" x="629" y="-243.8" font-family="Times,serif" font-size="14.00" fill="#000000">LoginModule</text>
</g>
<!-- LoginModule&#45;&gt;AppModule -->
<g id="edge7" class="edge">
<title>LoginModule&#45;&gt;AppModule</title>
<path fill="none" stroke="#000000" d="M629,-266.027C629,-282.3976 629,-304 629,-304 629,-304 551.8826,-304 551.8826,-304"/>
<polygon fill="#000000" stroke="#000000" points="551.8826,-300.5001 541.8826,-304 551.8826,-307.5001 551.8826,-300.5001"/>
</g>
<!-- DataService -->
<g id="node10" class="node">
<title>DataService</title>
<ellipse fill="#fdb462" stroke="#000000" cx="242" cy="-248" rx="58.4415" ry="18"/>
<text text-anchor="middle" x="242" y="-243.8" font-family="Times,serif" font-size="14.00" fill="#000000">DataService</text>
</g>
<!-- DataService&#45;&gt;AppModule -->
<g id="edge9" class="edge">
<title>DataService&#45;&gt;AppModule</title>
<path fill="none" stroke="#000000" d="M242,-266.1061C242,-285.3391 242,-313 242,-313 242,-313 448.2611,-313 448.2611,-313"/>
<polygon fill="#000000" stroke="#000000" points="448.2611,-316.5001 458.2611,-313 448.2611,-309.5001 448.2611,-316.5001"/>
</g>
<!-- HomeComponent -->
<g id="node11" class="node">
<title>HomeComponent</title>
<polygon fill="#ffffb3" stroke="#000000" points="428.5451,-190 313.4549,-190 313.4549,-154 428.5451,-154 428.5451,-190"/>
<text text-anchor="middle" x="371" y="-167.8" font-family="Times,serif" font-size="14.00" fill="#000000">HomeComponent</text>
</g>
<!-- HomeComponent&#45;&gt;HomeModule -->
<g id="edge10" class="edge">
<title>HomeComponent&#45;&gt;HomeModule</title>
<path fill="none" stroke="#000000" d="M371,-190.0109C371,-190.0109 371,-219.855 371,-219.855"/>
<polygon fill="#000000" stroke="#000000" points="367.5001,-219.8549 371,-229.855 374.5001,-219.855 367.5001,-219.8549"/>
</g>
<!-- LoginComponent -->
<g id="node12" class="node">
<title>LoginComponent</title>
<polygon fill="#ffffb3" stroke="#000000" points="686.2758,-190 571.7242,-190 571.7242,-154 686.2758,-154 686.2758,-190"/>
<text text-anchor="middle" x="629" y="-167.8" font-family="Times,serif" font-size="14.00" fill="#000000">LoginComponent</text>
</g>
<!-- LoginComponent&#45;&gt;LoginModule -->
<g id="edge11" class="edge">
<title>LoginComponent&#45;&gt;LoginModule</title>
<path fill="none" stroke="#000000" d="M629,-190.0109C629,-190.0109 629,-219.855 629,-219.855"/>
<polygon fill="#000000" stroke="#000000" points="625.5001,-219.8549 629,-229.855 632.5001,-219.855 625.5001,-219.8549"/>
</g>
<!-- OAuthService -->
<g id="node13" class="node">
<title>OAuthService</title>
<ellipse fill="#fdb462" stroke="#000000" cx="629" cy="-104" rx="66.0512" ry="18"/>
<text text-anchor="middle" x="629" y="-99.8" font-family="Times,serif" font-size="14.00" fill="#000000">OAuthService</text>
</g>
<!-- OAuthService&#45;&gt;LoginComponent -->
<g id="edge12" class="edge">
<title>OAuthService&#45;&gt;LoginComponent</title>
<path fill="none" stroke="#000000" d="M629,-122.2228C629,-122.2228 629,-143.7269 629,-143.7269"/>
<polygon fill="#000000" stroke="#000000" points="625.5001,-143.7269 629,-153.7269 632.5001,-143.727 625.5001,-143.7269"/>
</g>
</g>
</svg>
